<?xml version="1.0" encoding="UTF-8" standalone="no"?>
<!DOCTYPE svg PUBLIC "-//W3C//DTD SVG 1.1//EN" "http://www.w3.org/Graphics/SVG/1.1/DTD/svg11.dtd">
<svg width="100%" height="100%" viewBox="0 0 200 200" version="1.1" xmlns="http://www.w3.org/2000/svg" xmlns:xlink="http://www.w3.org/1999/xlink" xml:space="preserve" xmlns:serif="http://www.serif.com/" style="fill-rule:evenodd;clip-rule:evenodd;stroke-linecap:square;stroke-linejoin:round;stroke-miterlimit:1.5;">
    <g transform="matrix(0.470671,0,0,0.475124,-28.0152,-22.8988)">
        <path d="M260.328,96.042C269.256,94.649 278.411,93.926 287.737,93.926C361.016,93.926 423.737,138.585 449.087,201.624M419.157,374.585C387.355,410.792 340.258,433.733 287.737,433.733C275.673,433.733 248.714,431.262 220.325,422.015C187.031,411.17 171.981,395.801 166.145,389.52M135.462,345.046C122.022,320.912 114.382,293.238 114.382,263.829C114.382,196.309 154.656,137.934 212.924,110.542" style="fill:none;stroke:rgb(166,166,166);stroke-width:3.52px;"/>
    </g>
    <g transform="matrix(0.503557,0,0,0.497426,-29.0397,-26.9801)">
        <path d="M186.276,88.058C194.244,102.55 201.405,118.076 225.067,123.531C244.867,128.096 264.014,121.146 285.871,123.531C298.276,124.885 311.242,127.895 322.524,132.263C333.616,136.557 343.08,142.189 348.784,145.985C413.676,189.17 429.744,285.63 378.793,347.309" style="fill:none;stroke:rgb(166,166,166);stroke-width:3.33px;"/>
    </g>
    <g transform="matrix(0.503557,0,0,0.497426,-29.0397,-26.9801)">
        <path d="M371.136,248.136C421.57,272.978 398.21,324.076 378.793,347.309" style="fill:none;stroke:rgb(166,166,166);stroke-width:3.33px;"/>
    </g>
    <g transform="matrix(0.649013,0.487648,-0.599184,0.797458,107.887,-62.091)">
        <path d="M146.392,198.922C163.906,196.955 176.326,189.028 189.408,176.256C192.051,173.676 194.351,171.132 196.287,168.411" style="fill:none;stroke:rgb(255,242,158);stroke-width:1.83px;"/>
    </g>
    <g transform="matrix(0.649013,0.487648,-0.599184,0.797458,107.887,-62.091)">
        <path d="M202.837,152.196C203.168,150.179 203.463,148.114 203.801,146.025" style="fill:none;stroke:rgb(255,242,158);stroke-width:1.83px;"/>
    </g>
    <g transform="matrix(0.649013,0.487648,-0.599184,0.797458,107.887,-62.091)">
        <path d="M203.801,146.025C206.275,134.68 209.797,122.461 227.198,113.022" style="fill:none;stroke:rgb(255,242,158);stroke-width:1.83px;"/>
    </g>
    <g transform="matrix(0.470671,0,0,0.475124,-28.0152,-22.8988)">
        <path d="M260.328,96.042C269.256,94.649 278.411,93.926 287.737,93.926C333.448,93.926 375.051,111.304 406.037,139.681C415.705,148.535 431.583,160.885 454.216,161.931M419.157,374.585C388.007,409.102 342.556,432.854 287.737,433.733C258.285,434.205 233.542,411.269 229.315,380.172M135.462,345.046C122.022,320.912 130.014,294.923 144.041,275.637" style="fill:none;stroke:rgb(166,166,166);stroke-width:3.52px;"/>
    </g>
    <g transform="matrix(0.470671,0,0,0.475124,-28.0152,-22.8988)">
        <path d="M114.485,269.731C114.485,255.505 95.092,238.199 73.718,231.006" style="fill:none;stroke:rgb(166,166,166);stroke-width:3.52px;"/>
    </g>
    <g transform="matrix(0.470671,0,0,0.475124,-28.0152,-22.8988)">
        <path d="M119.537,222.574C132.151,173.086 166.932,132.163 212.924,110.542" style="fill:none;stroke:rgb(166,166,166);stroke-width:3.52px;"/>
    </g>
    <g transform="matrix(0.470671,0,0,0.475124,-28.0152,-22.8988)">
        <path d="M114.382,263.829C114.382,262.616 114.395,261.405 114.421,260.197C114.655,249.294 115.939,238.643 118.178,228.336C129.486,176.271 165.159,132.997 212.924,110.542" style="fill:none;stroke:rgb(166,166,166);stroke-width:3.52px;"/>
    </g>
    <g transform="matrix(0.503557,0,0,0.497426,-29.0397,-26.9801)">
        <path d="M176.594,207.97C172.993,191.314 174.022,172.884 186.333,157.105C197.725,142.506 218.245,132.913 236.207,128.262" style="fill:none;stroke:rgb(166,166,166);stroke-width:3.33px;"/>
    </g>
    <g transform="matrix(0.503557,0,0,0.497426,-29.0397,-26.9801)">
        <path d="M147.033,197.489C165.36,162.114 198.83,137.941 236.207,128.262" style="fill:none;stroke:rgb(166,166,166);stroke-width:3.33px;"/>
    </g>
    <g transform="matrix(0.30775,0.353443,-0.362343,0.315499,116.213,-65.267)">
        <path d="M140.839,216.147C150.115,166.594 210.518,117.898 255.13,126.746" style="fill:none;stroke:rgb(166,166,166);stroke-width:3.51px;"/>
    </g>
    <g transform="matrix(-0.109053,-0.930414,1.1223,-0.131544,-67.3581,367.393)">
        <path d="M169.163,235.311C170.023,224.08 180.912,203.443 190.572,193.262C193.96,189.691 198.207,185.599 202.115,182.076" style="fill:none;stroke:rgb(187,239,191);stroke-width:1.61px;"/>
    </g>
    <g transform="matrix(-0.109053,-0.930414,1.1223,-0.131544,-67.3581,367.393)">
        <path d="M216.825,169.495C230.044,156.595 236.311,143.049 236.207,128.262" style="fill:none;stroke:rgb(187,239,191);stroke-width:1.61px;"/>
    </g>
    <g transform="matrix(0.772324,0.530169,-0.639511,0.931608,34.7015,-126.964)">
        <path d="M147.033,197.489C170.031,196.581 194.784,186.677 207.55,177.377C225.816,164.07 236.329,145.573 236.207,128.262" style="fill:none;stroke:rgb(170,214,255);stroke-width:1.61px;"/>
    </g>
    <g transform="matrix(0.244896,0.399572,-0.409633,0.251063,143.895,-63.3473)">
        <path d="M150.116,200.059C167.442,164.61 175.754,163.802 211.695,168.161" style="fill:none;stroke:rgb(166,166,166);stroke-width:3.51px;"/>
    </g>
    <g transform="matrix(0.503557,0,0,0.497426,-29.0397,-26.9801)">
        <path d="M236.207,128.262C273.822,118.264 315.021,123.166 348.784,145.985C375.472,164.022 393.928,190.999 402.803,220.8C409.24,242.413 413.774,265.521 443.08,271.49" style="fill:none;stroke:rgb(166,166,166);stroke-width:3.33px;"/>
    </g>
    <g transform="matrix(-0.455797,-0.35954,0.405788,-0.514427,116.427,310.561)">
        <path d="M177.614,238.204C178.248,237.33 179.34,236.802 180.512,236.802C181.684,236.802 182.776,237.33 183.41,238.204C185.9,241.635 189.477,246.564 191.995,250.034C193.82,252.548 193.82,255.774 191.995,258.288C189.477,261.758 185.9,266.687 183.41,270.118C182.776,270.991 181.684,271.519 180.512,271.519C179.34,271.519 178.248,270.991 177.614,270.118C175.124,266.687 171.547,261.758 169.029,258.288C167.205,255.774 167.205,252.548 169.029,250.034C171.547,246.564 175.124,241.635 177.614,238.204Z" style="fill:rgb(170,214,255);"/>
    </g>
    <g transform="matrix(-0.00197038,0.580531,-0.655206,-0.00222383,226.716,27.178)">
        <path d="M177.614,238.204C178.248,237.33 179.34,236.802 180.512,236.802C181.684,236.802 182.776,237.33 183.41,238.204C185.9,241.635 189.477,246.564 191.995,250.034C193.82,252.548 193.82,255.774 191.995,258.288C189.477,261.758 185.9,266.687 183.41,270.118C182.776,270.991 181.684,271.519 180.512,271.519C179.34,271.519 178.248,270.991 177.614,270.118C175.124,266.687 171.547,261.758 169.029,258.288C167.205,255.774 167.205,252.548 169.029,250.034C171.547,246.564 175.124,241.635 177.614,238.204Z" style="fill:rgb(187,239,191);"/>
    </g>
    <g transform="matrix(-0.115687,-0.568891,0.642068,-0.130568,41.0617,274.512)">
        <path d="M177.614,238.204C178.248,237.33 179.34,236.802 180.512,236.802C181.684,236.802 182.776,237.33 183.41,238.204C185.9,241.635 189.477,246.564 191.995,250.034C193.82,252.548 193.82,255.774 191.995,258.288C189.477,261.758 185.9,266.687 183.41,270.118C182.776,270.991 181.684,271.519 180.512,271.519C179.34,271.519 178.248,270.991 177.614,270.118C175.124,266.687 171.547,261.758 169.029,258.288C167.205,255.774 167.205,252.548 169.029,250.034C171.547,246.564 175.124,241.635 177.614,238.204Z" style="fill:rgb(255,242,158);"/>
    </g>
    <g transform="matrix(0.4,0,0,0.4,-80.1842,-2.27983)">
        <circle cx="219.9" cy="224.26" r="15.488" style="fill:rgb(255,242,158);"/>
    </g>
    <g transform="matrix(0.5538,0,0,0.541536,30.2531,-28.0834)">
        <circle cx="219.9" cy="224.26" r="15.488" style="fill:rgb(187,239,191);"/>
    </g>
    <g transform="matrix(0.322498,0,0,0.322498,121.996,35.7396)">
        <circle cx="219.9" cy="224.26" r="15.488" style="fill:rgb(170,214,255);"/>
    </g>
    <g transform="matrix(0.4,0,0,0.4,0,0)">
        <path d="M280.171,225.992C282.956,225.992 285.105,226.699 286.618,228.111C288.131,229.524 288.888,231.542 288.888,234.165C288.888,235.497 288.626,236.415 288.101,236.919C287.577,237.424 286.608,237.676 285.195,237.676L271.514,237.676L271.514,233.802C271.514,231.421 272.291,229.524 273.845,228.111C275.398,226.699 277.507,225.992 280.171,225.992Z" style="fill:rgb(255,242,158);"/>
    </g>
    <g transform="matrix(0.4,0,0,0.4,0,0)">
        <path d="M185.49,250.873C183.23,250.873 181.495,250.379 180.284,249.39C179.073,248.401 178.468,246.979 178.468,245.122C178.468,243.266 179.114,241.793 180.405,240.703C181.697,239.613 183.654,238.947 186.277,238.705L190.757,238.342C193.38,238.1 195.176,237.616 196.145,236.889L196.145,242.216C196.145,244.84 195.166,246.938 193.209,248.512C191.252,250.086 188.679,250.873 185.49,250.873Z" style="fill:rgb(187,239,191);"/>
    </g>
    <g transform="matrix(0.447045,0,0,0.447045,-6.55978,-4.92285)">
        <g transform="matrix(54.1667,0,0,54.1667,319.906,237.11)">
        </g>
        <text x="103.727px" y="237.11px" style="font-family:'KoHo-Light', 'KoHo';font-weight:300;font-size:54.167px;fill:rgb(166,166,166);">Ne<tspan x="168.727px 196.298px " y="237.11px 237.11px ">at</tspan>Ne<tspan x="279.444px 303.115px " y="237.11px 237.11px ">st</tspan></text>
    </g>
    <g transform="matrix(0.4,0,0,0.4,0,0)">
        <path d="M157.946,225.992C160.731,225.992 162.88,226.699 164.393,228.111C165.907,229.524 166.663,231.542 166.663,234.165C166.663,235.497 166.401,236.415 165.876,236.919C165.352,237.424 164.383,237.676 162.971,237.676L149.289,237.676L149.289,233.802C149.289,231.421 150.066,229.524 151.62,228.111C153.174,226.699 155.282,225.992 157.946,225.992Z" style="fill:rgb(170,214,255);"/>
    </g>
</svg>
