<?xml version="1.0" encoding="UTF-8" standalone="no"?>
<!DOCTYPE svg PUBLIC "-//W3C//DTD SVG 1.1//EN" "http://www.w3.org/Graphics/SVG/1.1/DTD/svg11.dtd">
<svg width="100%" height="100%" viewBox="0 0 500 500" version="1.1" xmlns="http://www.w3.org/2000/svg" xmlns:xlink="http://www.w3.org/1999/xlink" xml:space="preserve" xmlns:serif="http://www.serif.com/" style="fill-rule:evenodd;clip-rule:evenodd;stroke-linecap:square;stroke-linejoin:round;stroke-miterlimit:1.5;">
    <g transform="matrix(1.17668,0,0,1.18781,-70.038,-57.2469)">
        <path d="M260.328,96.042C269.256,94.649 278.411,93.926 287.737,93.926C361.016,93.926 423.737,138.585 449.087,201.624M419.157,374.585C387.355,410.792 340.258,433.733 287.737,433.733C275.673,433.733 248.714,431.262 220.325,422.015C187.031,411.17 171.981,395.801 166.145,389.52M135.462,345.046C122.022,320.912 114.382,293.238 114.382,263.829C114.382,196.309 154.656,137.934 212.924,110.542" style="fill:none;stroke:rgb(241,241,241);stroke-width:3.52px;"/>
    </g>
    <g transform="matrix(1.25889,0,0,1.24357,-72.5992,-67.4503)">
        <path d="M186.276,88.058C194.244,102.55 201.405,118.076 225.067,123.531C244.867,128.096 264.014,121.146 285.871,123.531C298.276,124.885 311.242,127.895 322.524,132.263C333.616,136.557 343.08,142.189 348.784,145.985C413.676,189.17 429.744,285.63 378.793,347.309" style="fill:none;stroke:rgb(241,241,241);stroke-width:3.33px;"/>
    </g>
    <g transform="matrix(1.25889,0,0,1.24357,-72.5992,-67.4503)">
        <path d="M371.136,248.136C421.57,272.978 398.21,324.076 378.793,347.309" style="fill:none;stroke:rgb(241,241,241);stroke-width:3.33px;"/>
    </g>
    <g transform="matrix(1.62253,1.21912,-1.49796,1.99364,269.717,-155.227)">
        <path d="M146.392,198.922C163.906,196.955 176.326,189.028 189.408,176.256C192.051,173.676 194.351,171.132 196.287,168.411" style="fill:none;stroke:rgb(216,205,109);stroke-width:1.83px;"/>
    </g>
    <g transform="matrix(1.62253,1.21912,-1.49796,1.99364,269.717,-155.227)">
        <path d="M202.837,152.196C203.168,150.179 203.463,148.114 203.801,146.025" style="fill:none;stroke:rgb(216,205,109);stroke-width:1.83px;"/>
    </g>
    <g transform="matrix(1.62253,1.21912,-1.49796,1.99364,269.717,-155.227)">
        <path d="M203.801,146.025C206.275,134.68 209.797,122.461 227.198,113.022" style="fill:none;stroke:rgb(216,205,109);stroke-width:1.83px;"/>
    </g>
    <g transform="matrix(1.17668,0,0,1.18781,-70.038,-57.2469)">
        <path d="M260.328,96.042C269.256,94.649 278.411,93.926 287.737,93.926C333.448,93.926 375.051,111.304 406.037,139.681C415.705,148.535 431.583,160.885 454.216,161.931M419.157,374.585C388.007,409.102 342.556,432.854 287.737,433.733C258.285,434.205 233.542,411.269 229.315,380.172M135.462,345.046C122.022,320.912 130.014,294.923 144.041,275.637" style="fill:none;stroke:rgb(241,241,241);stroke-width:3.52px;"/>
    </g>
    <g transform="matrix(1.17668,0,0,1.18781,-70.038,-57.2469)">
        <path d="M114.485,269.731C114.485,255.505 95.092,238.199 73.718,231.006" style="fill:none;stroke:rgb(241,241,241);stroke-width:3.52px;"/>
    </g>
    <g transform="matrix(1.17668,0,0,1.18781,-70.038,-57.2469)">
        <path d="M119.537,222.574C132.151,173.086 166.932,132.163 212.924,110.542" style="fill:none;stroke:rgb(241,241,241);stroke-width:3.52px;"/>
    </g>
    <g transform="matrix(1.17668,0,0,1.18781,-70.038,-57.2469)">
        <path d="M114.382,263.829C114.382,262.616 114.395,261.405 114.421,260.197C114.655,249.294 115.939,238.643 118.178,228.336C129.486,176.271 165.159,132.997 212.924,110.542" style="fill:none;stroke:rgb(241,241,241);stroke-width:3.52px;"/>
    </g>
    <g transform="matrix(1.25889,0,0,1.24357,-72.5992,-67.4503)">
        <path d="M176.594,207.97C172.993,191.314 174.022,172.884 186.333,157.105C197.725,142.506 218.245,132.913 236.207,128.262" style="fill:none;stroke:rgb(241,241,241);stroke-width:3.33px;"/>
    </g>
    <g transform="matrix(1.25889,0,0,1.24357,-72.5992,-67.4503)">
        <path d="M147.033,197.489C165.36,162.114 198.83,137.941 236.207,128.262" style="fill:none;stroke:rgb(241,241,241);stroke-width:3.33px;"/>
    </g>
    <g transform="matrix(0.769374,0.883607,-0.905856,0.788748,290.533,-163.168)">
        <path d="M140.839,216.147C150.115,166.594 210.518,117.898 255.13,126.746" style="fill:none;stroke:rgb(241,241,241);stroke-width:3.51px;"/>
    </g>
    <g transform="matrix(-0.272633,-2.32604,2.80576,-0.328861,-168.395,918.482)">
        <path d="M169.163,235.311C170.023,224.08 180.912,203.443 190.572,193.262C193.96,189.691 198.207,185.599 202.115,182.076" style="fill:none;stroke:rgb(136,200,132);stroke-width:1.61px;"/>
    </g>
    <g transform="matrix(-0.272633,-2.32604,2.80576,-0.328861,-168.395,918.482)">
        <path d="M216.825,169.495C230.044,156.595 236.311,143.049 236.207,128.262" style="fill:none;stroke:rgb(136,200,132);stroke-width:1.61px;"/>
    </g>
    <g transform="matrix(1.93081,1.32542,-1.59878,2.32902,86.7537,-317.409)">
        <path d="M147.033,197.489C170.031,196.581 194.784,186.677 207.55,177.377C225.816,164.07 236.329,145.573 236.207,128.262" style="fill:none;stroke:rgb(136,158,207);stroke-width:1.61px;"/>
    </g>
    <g transform="matrix(0.612241,0.998929,-1.02408,0.627657,359.737,-158.368)">
        <path d="M150.116,200.059C167.442,164.61 175.754,163.802 211.695,168.161" style="fill:none;stroke:rgb(241,241,241);stroke-width:3.51px;"/>
    </g>
    <g transform="matrix(1.25889,0,0,1.24357,-72.5992,-67.4503)">
        <path d="M236.207,128.262C273.822,118.264 315.021,123.166 348.784,145.985C375.472,164.022 393.928,190.999 402.803,220.8C409.24,242.413 413.774,265.521 443.08,271.49" style="fill:none;stroke:rgb(241,241,241);stroke-width:3.33px;"/>
    </g>
    <g transform="matrix(-1.13949,-0.89885,1.01447,-1.28607,291.067,776.403)">
        <path d="M179.353,235.808C179.607,235.459 180.043,235.248 180.512,235.248C180.981,235.248 181.418,235.459 181.671,235.808C184.371,239.528 191.055,248.738 193.792,252.51C194.522,253.516 194.522,254.806 193.792,255.812C191.055,259.584 184.371,268.794 181.671,272.514C181.418,272.863 180.981,273.074 180.512,273.074C180.043,273.074 179.607,272.863 179.353,272.514C176.654,268.794 169.969,259.584 167.232,255.812C166.502,254.806 166.502,253.516 167.232,252.51C169.969,248.738 176.654,239.528 179.353,235.808Z" style="fill:rgb(136,158,207);"/>
    </g>
    <g transform="matrix(-0.00492595,1.45133,-1.63801,-0.00555959,566.79,67.9451)">
        <path d="M179.353,235.808C179.607,235.459 180.043,235.248 180.512,235.248C180.981,235.248 181.418,235.459 181.671,235.808C184.371,239.528 191.055,248.738 193.792,252.51C194.522,253.516 194.522,254.806 193.792,255.812C191.055,259.584 184.371,268.794 181.671,272.514C181.418,272.863 180.981,273.074 180.512,273.074C180.043,273.074 179.607,272.863 179.353,272.514C176.654,268.794 169.969,259.584 167.232,255.812C166.502,254.806 166.502,253.516 167.232,252.51C169.969,248.738 176.654,239.528 179.353,235.808Z" style="fill:rgb(136,200,132);"/>
    </g>
    <g transform="matrix(-0.289217,-1.42223,1.60517,-0.32642,102.654,686.281)">
        <path d="M179.353,235.808C179.607,235.459 180.043,235.248 180.512,235.248C180.981,235.248 181.418,235.459 181.671,235.808C184.371,239.528 191.055,248.738 193.792,252.51C194.522,253.516 194.522,254.806 193.792,255.812C191.055,259.584 184.371,268.794 181.671,272.514C181.418,272.863 180.981,273.074 180.512,273.074C180.043,273.074 179.607,272.863 179.353,272.514C176.654,268.794 169.969,259.584 167.232,255.812C166.502,254.806 166.502,253.516 167.232,252.51C169.969,248.738 176.654,239.528 179.353,235.808Z" style="fill:rgb(216,205,109);"/>
    </g>
    <g transform="matrix(1,0,0,1,-200.461,-5.69959)">
        <circle cx="219.9" cy="224.26" r="15.488" style="fill:rgb(216,205,109);"/>
    </g>
    <g transform="matrix(1.3845,0,0,1.35384,75.6328,-70.2084)">
        <circle cx="219.9" cy="224.26" r="15.488" style="fill:rgb(136,200,132);"/>
    </g>
    <g transform="matrix(0.806245,0,0,0.806245,304.991,89.3489)">
        <circle cx="219.9" cy="224.26" r="15.488" style="fill:rgb(136,158,207);"/>
    </g>
    <path d="M280.171,225.992C282.956,225.992 285.105,226.699 286.618,228.111C288.131,229.524 288.888,231.542 288.888,234.165C288.888,235.497 288.626,236.415 288.101,236.919C287.577,237.424 286.608,237.676 285.195,237.676L271.514,237.676L271.514,233.802C271.514,231.421 272.291,229.524 273.845,228.111C275.398,226.699 277.507,225.992 280.171,225.992Z" style="fill:rgb(216,205,109);"/>
    <path d="M185.49,250.873C183.23,250.873 181.495,250.379 180.284,249.39C179.073,248.401 178.468,246.979 178.468,245.122C178.468,243.266 179.114,241.793 180.405,240.703C181.697,239.613 183.654,238.947 186.277,238.705L190.757,238.342C193.38,238.1 195.176,237.616 196.145,236.889L196.145,242.216C196.145,244.84 195.166,246.938 193.209,248.512C191.252,250.086 188.679,250.873 185.49,250.873Z" style="fill:rgb(136,200,132);"/>
    <g transform="matrix(1.11761,0,0,1.11761,-16.3995,-12.3071)">
        <g transform="matrix(54.1667,0,0,54.1667,319.906,237.11)">
        </g>
        <text x="103.727px" y="237.11px" style="font-family:'KoHo-Light', 'KoHo';font-weight:300;font-size:54.167px;fill:rgb(241,241,241);">Ne<tspan x="168.727px 196.298px " y="237.11px 237.11px ">at</tspan>Ne<tspan x="279.444px 303.115px " y="237.11px 237.11px ">st</tspan></text>
    </g>
    <path d="M157.946,225.992C160.731,225.992 162.88,226.699 164.393,228.111C165.907,229.524 166.663,231.542 166.663,234.165C166.663,235.497 166.401,236.415 165.876,236.919C165.352,237.424 164.383,237.676 162.971,237.676L149.289,237.676L149.289,233.802C149.289,231.421 150.066,229.524 151.62,228.111C153.174,226.699 155.282,225.992 157.946,225.992Z" style="fill:rgb(136,158,207);"/>
</svg>
